<?xml version="1.0" encoding="UTF-8"?>
<svg id="_레이어_1" data-name="레이어 1" xmlns="http://www.w3.org/2000/svg" viewBox="0 0 1002 284.5">
  <defs>
    <style>
      .cls-1 {
        fill: #fff;
      }
    </style>
  </defs>
  <path class="cls-1" d="M72.1,283.24c-7.6,0-13.9,.2-20.2-.1-1.5-.1-3.3-1.3-4.4-2.5C19.8,247.94,5,209.94,1.3,167.44c-3.3-37.5,.2-74.1,14-109.5C23.2,37.64,34.1,19.24,47.9,2.64c.9-1.1,2.6-2.4,3.9-2.4,6.6-.2,13.2-.1,20.7-.1C38.5,41.44,22,88.64,21.7,141.34c-.2,52.8,15.5,100.2,50.4,141.9h0Z"/>
  <path class="cls-1" d="M928.55,.18c7.6,0,13.9-.2,20.2,.1,1.5,.1,3.3,1.3,4.4,2.5,27.7,32.7,42.5,70.7,46.2,113.2,3.3,37.5-.2,74.1-14,109.5-7.9,20.3-18.8,38.7-32.6,55.3-.9,1.1-2.6,2.4-3.9,2.4-6.6,.2-13.2,.1-20.7,.1,34-41.3,50.5-88.5,50.8-141.2,.2-52.8-15.5-100.2-50.4-141.9h0Z"/>
  <g>
    <path class="cls-1" d="M662,228.14c-5.5-4-11-8-16.8-12.3,34.6-29.8,60.9-65.1,79-107.4h-62.4v-18.3h66.7V47.84c-7,.9-13.9,1.9-20.8,2.5-11.6,.9-23.3,1.6-34.9,2.2-1.2,.1-3.2-.6-3.7-1.5-3-5.3-5.7-10.8-8.7-16.6,13.1-1.1,25.5-1.9,37.9-3.1,32.9-3.2,65.2-9.5,96.7-19.5,3.9-1.2,6-.6,8.1,2.8,2.3,3.8,5.2,7.3,8.8,12.3-21.8,6.3-42.8,12.4-64.2,18.6v44.4h62.8v18.1h-62.7v30.9c3.5-2.4,6.4-4.4,9.8-6.7,22.3,17.2,40.5,38.1,55.2,63.1-5.4,4.5-10.9,9.1-16.1,13.4-7.2-10.5-13.8-21.3-21.6-31.1-7.9-9.8-17-18.6-25.6-27.8-.5,.3-.9,.5-1.4,.8v122h-19v-125.2c-.4-.2-.8-.4-1.2-.6-16.4,31.5-38.3,58.5-65.9,81.3h0Z"/>
    <path class="cls-1" d="M832.4,254.34h31.2c13.6,0,16-2.4,16-15.9,0-66.6,0-133.3-.1-200V10.34h20.1v5.2c0,75.6,0,151.3-.2,227,0,5.1-.5,10.4-1.8,15.3-2.3,9.2-9.6,14.6-20,15-12.2,.5-24.3,.3-36.5,.2-1.1,0-2.8-.7-3.1-1.5-2-5.5-3.7-11.2-5.6-17.2h0Z"/>
    <path class="cls-1" d="M827.1,44.94h19.3V219.04h-19.3V44.94Z"/>
  </g>
  <g>
    <path class="cls-1" d="M510,172.74c6.8,4.9,13.3,9.6,19.8,14.1,2.7,1.9,4.2,4.5,2.5,7.2-1.3,2.1-3.9,4.4-6.1,4.6-9.1,.6-18.3,.3-27.5,.4h-22.7v44.1h125.7v-43.6h-51c-1.7-4.8-3.7-10.2-5.5-15.2h56.5v-40c-6,0-11.8-.1-17.6,0-10.3,.2-20.7,.3-31,.7-2.6,.1-3.9-.5-4.7-3-1.3-4.4-3-8.8-4.7-13.8,3.5,.4,6.3,.9,9.2,.9,14.5,.4,29,.6,43.4,1.2,3.8,.1,6.2-1.1,8.2-4.2,1.8-2.8,4.1-5.2,6.5-8.3,7.3,3.9,14.1,8.2,19.1,14.7,3,3.9,1.5,7.7-2.2,9.8-6,3.4-6.6,8.4-6.5,14.6,.6,35.5,.8,71,1.2,106.5,.1,9.5-5.3,14.2-14.7,12.8-3.8-.5-6.1-2.4-6-6.5v-12.3h-126.3v11.8c0,4.7-2.5,6.9-7.2,7.1-9.7,.6-14.4-3.8-13.4-14.4,3.6-37.3,1.5-74.6,1.9-111.9,.1-8.4-1-16.9-1.5-26,4.6,2.7,9.2,5.2,13.6,8,2.4,1.5,4.3,1.5,6.9,.4,14-6.3,28.2-12.2,38.2-25.3,6.9,4.2,13.6,7.9,19.8,12.2,1.8,1.2,2.9,4.6,2.7,6.8-.1,1.5-3.2,4-4.8,3.9-10.6-.8-19.1,5-28.5,8-7.9,2.6-15.9,4.7-23.8,7.3-1.5,.5-3.8,2.2-3.8,3.4-.3,11.9-.2,23.9-.2,36.4,6.9,0,13.2,.2,19.5-.1,1.5-.1,3.1-1.7,4.4-2.9,3.5-2.8,6.8-5.9,10.6-9.4h0Z"/>
    <path class="cls-1" d="M420.3,83.44c2.6,1.5,5.6,2.9,8.3,4.7,5,3.4,5.3,7.6,.1,10.6-5,2.8-5.4,6.5-5.4,11.4,.1,44.1,0,88.3,.1,132.4,0,6.1,.7,12.3,1.6,18.4,1.7,11.5-4.9,18.8-15.3,16.6-3.6-.8-5.6-2.7-5.8-6.4-.1-1.8-.1-3.7-.1-5.5-.1-48.3-.2-96.6-.4-144.9v-6.2c-9.8,11.9-18.9,23.1-28.3,34.5-3-2.3-5.3-4.1-7.9-6.1,29.2-41.3,49-86.4,57.8-137.3,9.3,3.8,18.6,7.3,27.5,11.4,1.8,.8,3.6,4,3.4,5.9-.1,1.9-2.7,3.6-4.4,5.2-.5,.5-1.6,.8-2.3,.8-8-.4-10.1,4.9-12.3,11.3-4.9,14.3-10.8,28.5-16.6,43.2h0Z"/>
    <path class="cls-1" d="M461.2,45.14c-.5-2.8-1.2-6.3-1.9-10.3,7.5-.5,14.6-.9,21.6-1.6,30-2.6,59.9-6.7,88.9-15,7.8-2.2,15.2-5.7,22.8-8.5,1.4-.5,3.5-1.1,4.5-.4,6.3,3.9,12.7,8,18.6,12.6,1.6,1.2,2.4,4.9,1.8,7-.5,1.6-3.9,3.6-5.7,3.3-15.3-1.7-29.6,3.7-44.4,5.2-25.7,2.6-51.3,5.4-77,7.6-9.5,.8-19.1,.1-29.2,.1h0Z"/>
    <path class="cls-1" d="M577.7,112.24c-2.5-2-4.7-3.7-7.4-5.9,15.1-19.7,27.5-40.5,32.5-66.2,9.4,3.6,18.7,7,27.6,11,1.8,.8,3.5,4.3,3.3,6.5-.1,1.7-3.1,3.2-4.9,4.8-.1,.1-.3,.1-.5,.1-8.8-.3-12.5,5.6-16.2,12.5-8,15.2-19.8,27.4-34.4,37.2h0Z"/>
    <path class="cls-1" d="M452.7,59.94c2.6-2.1,4.8-3.9,7.5-6,12.2,10.4,24.1,20.9,31.9,35.1,3.5,6.4,4.9,13.8,1.5,20.6-1.4,2.7-5.3,5.4-8.3,5.7-2.3,.2-6.7-2.8-7.3-5.1-4.5-18.6-13.7-34.8-25.3-50.3h0Z"/>
    <path class="cls-1" d="M516.6,50.84c1-.7,3.1-2.1,5.3-3.7,12.5,11.4,22.2,24.5,26.7,40.8,1.1,4,.6,8.9-.5,13.1-1.1,4.1-4.4,7.1-9.3,6.6-5-.5-7.7-3.4-8.5-8.9-.5-3.9-.4-8.1-1.6-11.9-3.7-11.7-7.9-23.4-12.1-36Z"/>
  </g>
  <path class="cls-1" d="M336.7,21.24v18.9h-117.2c-4.1,24-8.1,47.5-12.2,71.9h104.9c-5.1,44-10.1,87.2-15.2,131.1h58.9v19.1H84v-18.8h79.5c6.5-37.5,12.9-74.4,19.3-111.9h-60.9v-19.2h64.3c4.1-24,8.1-47.5,12.2-71.6H104.2V21.34l232.5-.1h0Zm-61,221.8c4.6-37.4,9.1-74.3,13.7-111.3h-85.2c-6.4,37.1-12.7,74.1-19.1,111.3h90.6Z"/>
</svg>